<svg xmlns="http://www.w3.org/2000/svg" viewBox="0 0 76.46 70.29"><defs><style>.a{isolation:isolate;}.b,.p{mix-blend-mode:multiply;}.c,.p{fill:#d9dadb;}.d{fill:#d1d3d4;}.e{fill:#e6e7e8;}.f{fill:#bcbec0;}.g{fill:#a7a9ac;}.h{fill:#a81a2b;}.i{fill:#bcbcbc;}.j{fill:#d32e2a;}.k{fill:#fcd19d;}.l{fill:#ffb564;}.m{fill:#be1e2d;}.n{fill:#edeeef;}.o{fill:#ef4136;}.q{fill:#d32622;}.r{fill:#f1f2f2;}.s{fill:#bababa;}.t{fill:#7f111e;}.u{fill:#a51931;}.v{fill:#fff;}.w{fill:#f79f03;}</style></defs><title>Ресурс 14</title><g class="a"><g class="b"><path class="c" d="M14.6,47.64l27.71-16a2.79,2.79,0,0,1,2.47-.26c.55.32.34,1-.47,1.42a2.86,2.86,0,0,1,2.47-.26c.55.32.34,1-.47,1.43a2.83,2.83,0,0,1,2.47-.27c.55.32.34,1-.47,1.43a2.81,2.81,0,0,1,2.46-.27c.55.32.35,1-.47,1.43A2.84,2.84,0,0,1,52.77,36c.55.32.34,1-.47,1.43a2.83,2.83,0,0,1,2.47-.27c.55.32.34,1-.47,1.43a2.83,2.83,0,0,1,2.47-.27c.55.33.34,1-.47,1.43a2.83,2.83,0,0,1,2.47-.26c.55.32.34,1-.47,1.43a2.83,2.83,0,0,1,2.47-.27c.55.32.34,1-.47,1.43a2.83,2.83,0,0,1,2.47-.27c.55.32.34,1-.47,1.43A2.83,2.83,0,0,1,64.77,43c.55.32.34,1-.47,1.43l-27.71,16-2-1.16-2-1.17-2-1.16-2-1.16-2-1.16-2-1.16-2-1.16-2-1.16L18.6,50l-2-1.16-2-1.16Z"/></g><path class="d" d="M48.93,17.71l-.07,0c-.61-.33-1.13-.12-1.19.5v-.06a2.29,2.29,0,0,0-1-1.81l-.06,0c-.62-.34-1.13-.11-1.19.52v-.05a2.27,2.27,0,0,0-1.06-1.81l0,0c-.61-.33-1.13-.1-1.18.54v0A2.26,2.26,0,0,0,42,13.58l0,0c-.61-.33-1.14-.1-1.18.53a2.19,2.19,0,0,0-1.08-1.81h0c-.61-.34-1.14-.1-1.17.55A2.18,2.18,0,0,0,37.48,11c-.63-.34-1.15-.09-1.18.56a2.2,2.2,0,0,0-1.07-1.78h0c-.62-.34-1.13-.07-1.16.57A2.19,2.19,0,0,0,33,8.6l0,0c-.62-.32-1.13,0-1.14.62a2.18,2.18,0,0,0-1.06-1.75l-.05,0c-.62-.31-1.13,0-1.13.64a2.17,2.17,0,0,0-1.06-1.73l-.06,0A.7.7,0,0,0,27.34,7a2.18,2.18,0,0,0-1.05-1.72l-.07,0A.81.81,0,0,0,25.05,6c0,9.61,0,26.06.09,35l2,1.15,2,1.15,2,1.14,2,1.16,2,1.16L37,48l2,1.17,2,1.17,2,1.17,2,1.18,2,1.19c.84-8.59,2-25.57,2.88-34.24v-.07A2.29,2.29,0,0,0,48.93,17.71Z"/><path class="e" d="M48.86,18.1l-.07,0c-.61-.33-1.13-.12-1.19.51v-.06a2.27,2.27,0,0,0-1.05-1.83l-.06,0c-.61-.34-1.14-.11-1.19.52v-.05a2.22,2.22,0,0,0-1.06-1.82l0,0c-.62-.34-1.15-.1-1.19.54v0A2.22,2.22,0,0,0,41.94,14h0c-.62-.34-1.15-.11-1.19.53a2.22,2.22,0,0,0-1.08-1.83h0c-.62-.34-1.15-.09-1.18.56a2.19,2.19,0,0,0-1.09-1.82c-.63-.35-1.16-.09-1.19.56a2.16,2.16,0,0,0-1.07-1.79h0c-.63-.34-1.14-.08-1.17.58a2.2,2.2,0,0,0-1.08-1.77l0,0c-.63-.33-1.15,0-1.16.63a2.18,2.18,0,0,0-1.06-1.77l-.05,0c-.63-.32-1.14,0-1.14.65a2.21,2.21,0,0,0-1.06-1.75l-.06,0c-.63-.31-1.13,0-1.12.67A2.21,2.21,0,0,0,26.1,5.56l-.07,0a.82.82,0,0,0-1.18.83c0,9.67,0,26.14.09,35.09l2,1.14,2,1.14,2,1.15,2,1.15,2,1.15,2,1.15,2,1.16,2,1.16,2,1.17,2,1.16,2,1.18c.87-8.53,2.13-25.47,3-34.15v-.07A2.3,2.3,0,0,0,48.86,18.1Z"/><path class="f" d="M24.89,6.19V6.12a.69.69,0,0,0-1.06-.63l-.07,0a2,2,0,0,0-1,1.63V7.1a.69.69,0,0,0-1.07-.63l-.06,0a2,2,0,0,0-1,1.66V8.11c0-.62-.5-.9-1.09-.61l0,0a2,2,0,0,0-1,1.68v0c0-.63-.52-.91-1.11-.61h0a2.08,2.08,0,0,0-1.05,1.69c0-.64-.53-.91-1.13-.6h0A2.07,2.07,0,0,0,14,11.39c0-.64-.54-.91-1.15-.59a2.11,2.11,0,0,0-1.08,1.75c0-.63-.54-.89-1.15-.58h0a2.11,2.11,0,0,0-1.07,1.77c0-.63-.56-.87-1.17-.56l0,0A2.15,2.15,0,0,0,7.27,15c0-.63-.55-.88-1.16-.57l-.05,0A2.18,2.18,0,0,0,5,16.3c0-.63-.56-.87-1.17-.55l-.06,0a2.2,2.2,0,0,0-1.07,1.84c0-.62-.57-.85-1.18-.53l-.07,0A2.22,2.22,0,0,0,.37,19c.73,8.76,2,26,2.72,35l1.85-1.09L7,51.64l2.05-1.21,2-1.2,2-1.2,2-1.18,2-1.17,2-1.17,2-1.16L23,42.21l1.93-1.15C25,32,24.79,15,24.89,6.19Z"/><path class="g" d="M25.91,31.28l-.07,0a2.52,2.52,0,0,0-1.13,1.87c.11,8.44-.12,25,0,33.48l2-1.17c0-8.53.29-25.24.27-33.77,0-.61-.48-.8-1.08-.46Z"/><path class="h" d="M28.19,29.84l-.06,0A2.55,2.55,0,0,0,27,31.74c0,8.53-.29,25.24-.27,33.77l2-1.17c.06-8.62.46-25.41.53-34,0-.61-.47-.81-1.08-.46Z"/><path class="h" d="M32.73,27l0,0a2.49,2.49,0,0,0-1.16,1.85c-.16,8.7-.64,25.58-.79,34.28l2-1.17c.23-8.77.8-25.71,1-34.48v0c0-.62-.47-.83-1.09-.48Z"/><path class="h" d="M37.28,24.35a2.53,2.53,0,0,0-1.19,1.82h0C35.77,35,35.12,52,34.8,60.85l2-1.16c.41-8.89,1.15-25.94,1.56-34.82h0c0-.65-.46-.87-1.09-.51Z"/><path class="h" d="M41.82,21.78a2.58,2.58,0,0,0-1.18,1.79v0c-.49,8.92-1.32,26-1.82,34.93l2-1.17c.57-8.94,1.49-26.06,2.06-35v0c0-.63-.44-.87-1.06-.53Z"/><path class="h" d="M46.35,19.35a2.54,2.54,0,0,0-1.17,1.77c-.66,9-1.66,26.1-2.31,35.07l2-1.16c.75-9,1.83-26.13,2.57-35.1v-.06c0-.62-.43-.87-1-.56l-.06,0Z"/><path class="g" d="M30.47,28.41l0,0a2.52,2.52,0,0,0-1.15,1.86c-.07,8.63-.47,25.42-.53,34l2-1.16c.15-8.7.63-25.58.79-34.28,0-.62-.47-.84-1.08-.49Z"/><path class="g" d="M35,25.67h0a2.57,2.57,0,0,0-1.17,1.83v0c-.24,8.77-.81,25.71-1,34.48l2-1.16c.32-8.83,1-25.83,1.29-34.67h0c0-.63-.46-.85-1.07-.5Z"/><path class="g" d="M39.54,23.06a2.5,2.5,0,0,0-1.17,1.8h0C38,33.75,37.22,50.8,36.81,59.69l2-1.17c.5-8.92,1.33-26,1.82-34.93v0c0-.64-.45-.88-1.08-.52Z"/><path class="g" d="M44.08,20.55a2.53,2.53,0,0,0-1.17,1.79c-.57,9-1.49,26.07-2.06,35l2-1.16c.65-9,1.65-26.1,2.31-35.07v-.05c0-.63-.43-.87-1-.54l-.05,0Z"/><path class="g" d="M48.62,18.18a2.48,2.48,0,0,0-1.17,1.75c-.74,9-1.82,26.12-2.57,35.1l2-1.17c.82-9,2-26.12,2.81-35.09V18.7c0-.62-.42-.88-1-.56l-.07,0Z"/><path class="d" d="M24.9,6.54V6.48a.68.68,0,0,0-1-.64l-.07,0a2,2,0,0,0-1,1.63V7.45a.69.69,0,0,0-1.07-.63l-.05,0a2,2,0,0,0-1,1.66v0c0-.62-.49-.9-1.08-.62l0,0a2,2,0,0,0-1,1.68v0c0-.63-.51-.9-1.1-.61h0a2.06,2.06,0,0,0-1,1.7c0-.64-.52-.92-1.13-.61h0a2.1,2.1,0,0,0-1,1.73c0-.65-.54-.91-1.15-.59a2.11,2.11,0,0,0-1.07,1.75c0-.64-.53-.9-1.13-.58h0A2.13,2.13,0,0,0,9.68,14.1c0-.63-.55-.87-1.16-.55h0a2.13,2.13,0,0,0-1.06,1.8c0-.63-.55-.88-1.15-.56l-.06,0a2.19,2.19,0,0,0-1.06,1.83c0-.63-.55-.87-1.16-.55l-.06,0A2.21,2.21,0,0,0,2.89,18c-.05-.63-.56-.86-1.17-.54l-.07,0A2.21,2.21,0,0,0,.59,19.35C1.32,28.11,2.27,45.16,3,54.1l2.11-.88L7.17,52l2-1.21,2-1.2,2-1.19,2-1.18,2-1.18,2-1.17,1.94-1.15L23,42.56l1.92-1.15C25,32.38,24.81,15.33,24.9,6.54Z"/><path class="i" d="M1.34,18.09l-.07,0c-.63-.32-1.08,0-1,.63.83,9,2,26.14,2.86,35.12l2,1.17c-.76-9-1.86-26.15-2.62-35.13a2.48,2.48,0,0,0-1.17-1.75Z"/><path class="j" d="M3.61,19.26l-.06,0c-.63-.33-1.09-.06-1,.61C3.27,28.82,4.37,46,5.13,55l2,1.17C6.48,47.16,5.46,30,4.78,21a2.54,2.54,0,0,0-1.17-1.77Z"/><path class="j" d="M8.14,21.7l0,0c-.63-.34-1.1-.09-1.06.57.59,9,1.53,26.09,2.12,35.05l2,1.17c-.51-8.93-1.36-26-1.87-35v0A2.54,2.54,0,0,0,8.14,21.7Z"/><path class="j" d="M12.68,24.26c-.63-.36-1.11-.13-1.09.51h0c.43,8.9,1.19,26,1.62,34.85l2,1.16c-.33-8.84-1-25.85-1.35-34.69h0a2.54,2.54,0,0,0-1.19-1.83Z"/><path class="j" d="M17.23,26.94c-.62-.35-1.1-.14-1.09.48v0c.25,8.78.85,25.74,1.1,34.52l2,1.17c-.17-8.72-.68-25.61-.84-34.32v0A2.59,2.59,0,0,0,17.25,27l0,0Z"/><path class="j" d="M21.77,29.75c-.61-.35-1.08-.15-1.08.47.08,8.63.51,25.43.59,34.07l2,1.17c0-8.54-.32-25.26-.32-33.81v-.06a2.6,2.6,0,0,0-1.14-1.81l-.06,0Z"/><path class="i" d="M5.88,20.47l0,0c-.63-.34-1.1-.07-1,.59.68,9,1.7,26.13,2.37,35.11l2,1.16c-.59-9-1.53-26.09-2.12-35a2.5,2.5,0,0,0-1.17-1.78Z"/><path class="i" d="M10.42,23h0c-.62-.36-1.1-.12-1.07.52v0c.51,8.93,1.36,26,1.87,35l2,1.16c-.43-8.89-1.19-25.95-1.62-34.85h0A2.52,2.52,0,0,0,10.42,23Z"/><path class="i" d="M15,25.58c-.62-.35-1.11-.13-1.08.51h0c.33,8.84,1,25.85,1.35,34.69l2,1.17c-.25-8.78-.85-25.74-1.1-34.52v0A2.55,2.55,0,0,0,15,25.6l0,0Z"/><path class="i" d="M19.49,28.33c-.6-.35-1.08-.14-1.07.48.16,8.71.67,25.6.84,34.32l2,1.16c-.08-8.64-.51-25.44-.59-34.07v0a2.51,2.51,0,0,0-1.15-1.81l-.05,0Z"/><path class="i" d="M24.05,31.2c-.6-.35-1.08-.16-1.08.45,0,8.55.34,25.27.32,33.81l2,1.17c.09-8.45-.16-25.07-.07-33.51v-.07a2.58,2.58,0,0,0-1.13-1.81l-.07,0Z"/><path class="k" d="M46.91,16.08l-1.71.82c.26-.76-.52-1.58-1.33-1.6h0a5.23,5.23,0,0,0,.49-.45A2.79,2.79,0,0,0,45,12.11a1.7,1.7,0,0,0-2.42-.87,1.93,1.93,0,0,0-3.67-1.17,4.62,4.62,0,0,0-1.32-3.41,2.08,2.08,0,0,0-2.67.18,4,4,0,0,0,.19-2.55A2.87,2.87,0,0,0,32.8,2.17,2.21,2.21,0,0,0,30.38,4a6.75,6.75,0,0,0-.32-2.41A2.32,2.32,0,0,0,28.31,0c-1.24-.14-2.19,1-2.88,2.06a2,2,0,0,0-2.4.78,4.34,4.34,0,0,0-.7,1.6,2.13,2.13,0,0,0-1.45-1.32,1.49,1.49,0,0,0-1.48.36A1.63,1.63,0,0,0,17.69,3a1.9,1.9,0,0,0-1.3,1.32,1.77,1.77,0,0,0-1.67.24,2.91,2.91,0,0,0-1.15,1.49,1.1,1.1,0,0,0-.94,0,2.46,2.46,0,0,0-1.21,2.62,2.06,2.06,0,0,0-.87-.27,3,3,0,0,0-2.76,1.9,5.36,5.36,0,0,0-.26,2.92,1.83,1.83,0,0,0-1.76-1.15,2.42,2.42,0,0,0-2.06,1.76,4.39,4.39,0,0,0,.35,2.78c.39,1.27.52.82-.44,1.72-.71.67-2.31,2.71-.37,3.25.91.26,1.84-.63,2.75-.38s1.16,1.56,1.73,2.41a2.5,2.5,0,0,0,2.13,1.08,3.08,3.08,0,0,1,1.05,0c.56.19.8.82,1,1.37.76,2.06,2.29,4.25,4.48,4.24a3.2,3.2,0,0,1,1,.05c1.32.45.78,2.91,2.09,3.4.59.22,1.24-.13,1.88-.14,1.36,0,2.23,1.47,3.5,2s2.74,0,3.95-.7A2.55,2.55,0,0,1,30,34.55a4.17,4.17,0,0,1,1.08.27A3.71,3.71,0,0,0,34.18,34a11,11,0,0,0,2.17-2.57c.57.78,1.82.5,2.63,0a7.39,7.39,0,0,0,3-3.85.41.41,0,0,0,0,.08,7.61,7.61,0,0,0,3.64-6.1,2.68,2.68,0,0,1,.13-.94,3.78,3.78,0,0,1,.82-1A3,3,0,0,0,46.91,16.08Z"/><path class="l" d="M9.93,14.68a4.29,4.29,0,0,1,.51-1.6.49.49,0,0,1,.25-.26.53.53,0,0,1,.38.08,17.13,17.13,0,0,1,1.82,1,2,2,0,0,0-2.12.52.92.92,0,0,1-.3.29c-.26.12-.55-.06-.78-.23Z"/><path class="l" d="M10.39,19.63c-.15-.66.67-1.21,1.34-1.08a3.16,3.16,0,0,1,1.61,1.18,2.2,2.2,0,0,0-2.8.86l-.62-.94Z"/><path class="l" d="M18.13,15.33A1.43,1.43,0,0,1,19.45,14a3,3,0,0,1,2,.66L20,15.37a2.31,2.31,0,0,1-1.28.41c-.45,0-.89-.5-.74-.93Z"/><path class="l" d="M22.05,8.66A2.16,2.16,0,0,1,23.25,7a3.94,3.94,0,0,0,.28,1.86.76.76,0,0,1-.69.18Z"/><path class="l" d="M27,6.71a2,2,0,0,1-.44-.92A.68.68,0,0,1,27.12,5c.42,0,.65.47.82.85s.56.82.93.62.33-.64.65-.75a2.65,2.65,0,0,1,.67,1.09.9.9,0,0,1-.48,1.07,1.09,1.09,0,0,1-1-.35,4.17,4.17,0,0,0-.88-.74.72.72,0,0,0-1,.28Z"/><path class="l" d="M33.25,7.93a1.44,1.44,0,0,0-.42,1.36,1.17,1.17,0,0,0,1.08.87,1,1,0,0,0,1-.94,1.77,1.77,0,0,0,1.31,1.95A1.28,1.28,0,0,1,35,12.47a1.29,1.29,0,0,1-1.33-1.12c0-.54.16-1.27-.34-1.48-.12,0-.26,0-.39-.09A.89.89,0,0,1,32.37,9a2.53,2.53,0,0,1,.12-1c0-.17.12-.38.3-.39Z"/><path class="l" d="M25.23,16.64A1.85,1.85,0,0,1,25.71,15c.26-.26.78-.38.91,0,.07.18,0,.45.17.54s.3-.09.41-.21a1.31,1.31,0,0,1,2.23.7c.06.41-.17.92-.59.95a1.33,1.33,0,0,1-.62-.22,2.78,2.78,0,0,0-2.77.22c-.06-.08.09-.2.16-.13Z"/><path class="l" d="M26.64,23.31a2.55,2.55,0,0,1,1-1.95.62.62,0,0,1,.29-.12c.31,0,.46.38.53.69s.34.68.63.54.2-.32.3-.49a.64.64,0,1,1,1.08.68,2.71,2.71,0,0,0-2.09.55,1.92,1.92,0,0,1-.68.45c-.26.07-.61-.08-.61-.36Z"/><path class="l" d="M16.59,22.92a14,14,0,0,1,.31-1.43A1.21,1.21,0,0,1,18,20.62c.48,0,.89.65.56,1a2.51,2.51,0,0,1,1-.71,3.83,3.83,0,0,1,.08,1.47,5.32,5.32,0,0,0-2.17.31,1.92,1.92,0,0,0-.18,1,.8.8,0,0,1-.89-.39Z"/><path class="l" d="M15.08,9.74c.1-.39-.17-.9.13-1.17s.86.09,1.27-.05c.21-.07.36-.27.54-.39s.51-.12.58.09-.14.36-.3.47l-.82.53c-.49.32-1.12.64-1.63.34Z"/><path class="l" d="M21.61,17.89A1.56,1.56,0,0,0,22.69,19a1.53,1.53,0,0,0,1.49-.43,3.82,3.82,0,0,0-.68,1.84c-.62,0-.76-.88-1.17-1.35A1.22,1.22,0,0,0,21,18.76a2,2,0,0,1,1.07-1Z"/><path class="l" d="M35.71,19.52c-.17-.07-.06-.32.07-.44.84-.79,1.71-1.8,1.54-2.94A9.7,9.7,0,0,1,38,18a7.19,7.19,0,0,0-2.13,1.39Z"/><path class="l" d="M27.22,10a2.84,2.84,0,0,0,1.33,2.07.76.76,0,0,0-.19-1.31,2.44,2.44,0,0,1-.55-.12.89.89,0,0,1-.29-.32l-.44-.69Z"/><path class="l" d="M14.46,15.33a1.07,1.07,0,0,0-.88,1l1.51,0c.08,0,.18,0,.22-.08s0-.13,0-.19a1.43,1.43,0,0,0-.82-.78Z"/><path class="l" d="M5.47,18.7a5.69,5.69,0,0,1,2,.88,6.23,6.23,0,0,1-1.19-2.35,1.67,1.67,0,0,0-.94,1.37Z"/><path class="l" d="M20.29,26.09c.31-.56.63-1.11.95-1.66a4.31,4.31,0,0,0,.67,2.31,4.4,4.4,0,0,0-1.7-.54Z"/><path class="l" d="M35,21.86a14,14,0,0,0,2.12-.43l-1.32,1.89a15.08,15.08,0,0,1-1-1.57Z"/><path class="l" d="M32.66,17c0,.06-.15,0-.17-.1a2,2,0,0,1-.15-1.1.9.9,0,0,1,.73-.76.59.59,0,0,1,.64.7c.32-.08.35-.51.5-.8a.89.89,0,0,1,1.15-.38.91.91,0,0,1,.41,1.14,1.39,1.39,0,0,0-1.83.45,1,1,0,0,1-.24.33,1.08,1.08,0,0,1-.48.14,1.14,1.14,0,0,0-.85.84Z"/><path class="l" d="M15.78,12a.79.79,0,0,0,1.16.32,2.69,2.69,0,0,0,.47-.67.72.72,0,0,1,.68-.4c.25.05.41.32.65.41a.54.54,0,0,0,.7-.52v.46A1.9,1.9,0,0,0,18,12a3.8,3.8,0,0,1-1.35.67A1,1,0,0,1,15.5,12Z"/><path class="f" d="M26.2,31.43l-.08,0A2.53,2.53,0,0,0,25,33.35c.1,8.43-.13,25,0,33.47l2-1.17c0-8.53.29-25.23.27-33.77,0-.61-.48-.8-1.08-.45Z"/><path class="m" d="M28.47,30l-.06,0a2.51,2.51,0,0,0-1.13,1.87c0,8.54-.3,25.24-.27,33.77l2-1.16c.06-8.63.46-25.42.52-34,0-.61-.47-.81-1.08-.46Z"/><path class="m" d="M33,27.17l0,0A2.53,2.53,0,0,0,31.83,29c-.15,8.71-.64,25.58-.79,34.28l2-1.16c.24-8.78.81-25.72,1-34.49v0c0-.62-.48-.83-1.09-.48Z"/><path class="m" d="M37.56,24.49a2.54,2.54,0,0,0-1.18,1.82v0c-.32,8.83-1,25.83-1.3,34.66l2-1.16C37.5,50.94,38.25,33.9,38.66,25h0c0-.64-.47-.87-1.1-.51Z"/><path class="m" d="M42.11,21.93a2.48,2.48,0,0,0-1.18,1.78v0c-.49,8.92-1.32,26-1.82,34.94l2-1.17c.58-9,1.49-26.07,2.07-35v0c0-.64-.45-.88-1.06-.54l0,0Z"/><path class="m" d="M46.64,19.49a2.51,2.51,0,0,0-1.17,1.77c-.67,9-1.66,26.1-2.32,35.07l2-1.16c.74-9,1.82-26.13,2.56-35.1V20c0-.62-.43-.87-1-.55l-.06,0Z"/><path class="f" d="M30.76,28.56l-.06,0a2.54,2.54,0,0,0-1.15,1.85c-.06,8.63-.46,25.42-.52,34.05l2-1.17c.15-8.7.64-25.57.79-34.28,0-.62-.47-.83-1.07-.48Z"/><path class="f" d="M35.3,25.81l0,0a2.49,2.49,0,0,0-1.17,1.82v0c-.23,8.77-.8,25.71-1,34.49l2-1.17c.32-8.83,1-25.83,1.3-34.66v0c0-.63-.46-.85-1.08-.5Z"/><path class="f" d="M39.83,23.2A2.46,2.46,0,0,0,38.66,25h0c-.41,8.89-1.16,25.93-1.57,34.82l2-1.16c.5-8.93,1.33-26,1.82-34.94v0c0-.64-.45-.88-1.08-.52Z"/><path class="f" d="M44.37,20.7a2.5,2.5,0,0,0-1.17,1.78c-.58,9-1.49,26.07-2.07,35l2-1.17c.66-9,1.65-26.1,2.32-35.07v-.05c0-.62-.44-.87-1.06-.54l0,0Z"/><path class="f" d="M48.9,18.32a2.48,2.48,0,0,0-1.17,1.75c-.74,9-1.82,26.12-2.56,35.1l2-1.17c.83-9,2-26.12,2.81-35.09v-.07c0-.61-.43-.87-1-.56l-.07,0Z"/><path class="n" d="M1.1,18.3l-.07,0c-.63-.32-1.09,0-1,.63C.84,27.87,2,45,2.86,54l2,1.17C4.13,46.2,3,29,2.27,20.05A2.48,2.48,0,0,0,1.1,18.3Z"/><path class="o" d="M3.37,19.47l-.06,0c-.63-.33-1.09-.05-1,.61C3,29,4.13,46.2,4.89,55.18l2,1.17c-.67-9-1.7-26.13-2.37-35.11a2.54,2.54,0,0,0-1.17-1.77Z"/><path class="o" d="M7.9,21.91l0,0c-.63-.34-1.11-.09-1.06.57.59,9,1.53,26.1,2.11,35.05l2,1.17c-.51-8.93-1.36-26-1.87-35v0A2.54,2.54,0,0,0,7.9,21.91Z"/><path class="o" d="M12.44,24.47c-.63-.36-1.12-.13-1.09.51h0c.42,8.9,1.19,26,1.62,34.85L15,61c-.33-8.84-1-25.85-1.35-34.69h0a2.54,2.54,0,0,0-1.19-1.83Z"/><path class="o" d="M17,27.16c-.62-.36-1.1-.15-1.09.47v0c.25,8.78.85,25.74,1.09,34.52l2,1.17c-.17-8.71-.68-25.6-.84-34.32v0A2.59,2.59,0,0,0,17,27.17Z"/><path class="o" d="M21.53,30c-.61-.35-1.08-.14-1.08.47.08,8.63.51,25.44.59,34.07l2,1.17c0-8.54-.33-25.26-.32-33.81V31.8A2.6,2.6,0,0,0,21.59,30l-.06,0Z"/><path class="n" d="M5.64,20.68l0,0c-.63-.34-1.1-.07-1,.59.67,9,1.7,26.13,2.37,35.11l2,1.16c-.58-8.95-1.52-26.09-2.11-35a2.53,2.53,0,0,0-1.17-1.78Z"/><path class="n" d="M10.17,23.18h0c-.62-.36-1.1-.12-1.07.52v0c.51,8.92,1.36,26,1.87,35l2,1.16C12.54,51,11.77,33.89,11.35,25h0a2.52,2.52,0,0,0-1.18-1.8Z"/><path class="n" d="M14.7,25.8c-.61-.36-1.1-.14-1.07.5h0C14,35.15,14.65,52.16,15,61l2,1.17c-.24-8.78-.84-25.74-1.09-34.52v0a2.53,2.53,0,0,0-1.18-1.82Z"/><path class="n" d="M19.25,28.54c-.61-.35-1.09-.14-1.07.48.16,8.72.67,25.61.84,34.32l2,1.16c-.08-8.63-.51-25.44-.59-34.07v-.05a2.56,2.56,0,0,0-1.15-1.81l-.05,0Z"/><path class="n" d="M23.81,31.41c-.6-.35-1.08-.15-1.08.45,0,8.55.33,25.27.32,33.81l2,1.17c.09-8.45-.16-25.07-.07-33.51v-.07a2.62,2.62,0,0,0-1.13-1.81l-.07,0Z"/><path class="o" d="M13.16,34.43c-4.63-2.67-8.39-1.16-8.4,3.39S8.48,48.2,13.11,50.88s8.4,1.15,8.41-3.39-3.73-10.38-8.36-13.06Z"/><path class="e" d="M13.15,36.24c-4-2.31-7.27-1.33-7.28,2.22s3.24,8.29,7.25,10.6,7.27,1.33,7.28-2.21-3.23-8.29-7.25-10.61Z"/><path class="p" d="M70.74,58.53a2.33,2.33,0,0,0,.82-1,1.65,1.65,0,0,0,.23-1.88A4.69,4.69,0,0,0,70,53.8l2.93-1.48,0,.11,2.46,1.66,0,0a.32.32,0,0,0,.19.06,1.33,1.33,0,0,0,.71-.2c.07-.05.1-.1.09-.14l0,0-2.66-2.09a.37.37,0,0,0-.29-.18,1.22,1.22,0,0,0-.57,0l-3.68,1.83a13.39,13.39,0,0,0-5-1.34,9,9,0,0,0-3.64.4,6.31,6.31,0,0,0-1.88.65,2.31,2.31,0,0,0-1.37,1.85l-.77.55L43.27,65.05a2.58,2.58,0,0,0-1,1,1.32,1.32,0,0,0-.07,1.13c.49,1.24,2.65,2.14,5.17,2.32a14.06,14.06,0,0,0,2.05,0A7.66,7.66,0,0,0,53,68.32l14.87-8.77A6.14,6.14,0,0,0,70.74,58.53Z"/><path class="o" d="M56.53,43.25a3.13,3.13,0,0,1-.14,1L53.15,66.71a3.09,3.09,0,0,1-1.8,2.53,7.13,7.13,0,0,1-1.72.7,9.75,9.75,0,0,1-7-.7,4.25,4.25,0,0,1-1.36-1.19,2.38,2.38,0,0,1-.47-1.35L38.24,49.18l-.73-5a3.74,3.74,0,0,1-.13-.88,3.55,3.55,0,0,1,0-.46A7.6,7.6,0,0,1,39.56,41a14.86,14.86,0,0,1,7.37-1.78A15,15,0,0,1,54.31,41a7.73,7.73,0,0,1,2.19,1.81A3.22,3.22,0,0,1,56.53,43.25Z"/><path class="q" d="M56.53,43.25a3.13,3.13,0,0,1-.14,1L53.15,66.71a3.09,3.09,0,0,1-1.8,2.53,7.13,7.13,0,0,1-1.72.7l1.63-18.55a16.76,16.76,0,0,1-4.27.53,15.1,15.1,0,0,1-7.39-1.77,8.44,8.44,0,0,1-1.36-1l-.73-5a3.74,3.74,0,0,1-.13-.88,3.55,3.55,0,0,1,0-.46A7.6,7.6,0,0,1,39.56,41a14.86,14.86,0,0,1,7.37-1.78A15,15,0,0,1,54.31,41a7.73,7.73,0,0,1,2.19,1.81A3.22,3.22,0,0,1,56.53,43.25Z"/><path class="e" d="M47,50.89a14.92,14.92,0,0,1-7.38-1.78c-2.08-1.2-3.23-2.82-3.23-4.58S37.5,41.17,39.56,40a14.86,14.86,0,0,1,7.37-1.78A15,15,0,0,1,54.31,40c2.08,1.2,3.23,2.82,3.23,4.58s-1.13,3.36-3.18,4.55A14.88,14.88,0,0,1,47,50.89Z"/><path class="d" d="M57,43.9h0v-1h-.21a5.83,5.83,0,0,0-2.76-3,15.66,15.66,0,0,0-14.23,0,5.76,5.76,0,0,0-2.73,3h-.2v1h0c0,1.54.94,3.08,3,4.25a15.68,15.68,0,0,0,14.24,0C56.11,47,57.08,45.44,57,43.9Z"/><path class="r" d="M54.05,39.13a15.69,15.69,0,0,0-14.23,0c-3.92,2.28-3.9,6,0,8.25a15.74,15.74,0,0,0,14.24,0C58,45.1,58,41.41,54.05,39.13Z"/><path class="d" d="M55.22,43a1.24,1.24,0,0,1,0,.27,3.73,3.73,0,0,1-2,2.28A12.74,12.74,0,0,1,47,47a12.74,12.74,0,0,1-6.22-1.47,3.72,3.72,0,0,1-2.05-2.32,2,2,0,0,1,0-.25c0-.87.74-1.8,2-2.54A12.78,12.78,0,0,1,46.93,39a12.85,12.85,0,0,1,6.22,1.47C54.46,41.2,55.22,42.13,55.22,43Z"/><path class="e" d="M55.19,43.28a3.73,3.73,0,0,1-2,2.28A12.74,12.74,0,0,1,47,47a12.74,12.74,0,0,1-6.22-1.47,3.72,3.72,0,0,1-2.05-2.32,3.71,3.71,0,0,1,2-2.28,12.78,12.78,0,0,1,6.21-1.46A12.74,12.74,0,0,1,53.15,41,3.67,3.67,0,0,1,55.19,43.28Z"/><path class="s" d="M47.8,42.51a1.86,1.86,0,0,0-1.69,0,.52.52,0,0,0,0,1,1.91,1.91,0,0,0,1.68,0,.52.52,0,0,0,0-1Z"/><path class="m" d="M55.9,34.58a1.19,1.19,0,0,1-.55,1,.41.41,0,0,1-.34.06l-.1-.06-5-2.86-.23-.13L48,42.66l-.15.79-.05,0a1.41,1.41,0,0,1-.51.18,1.91,1.91,0,0,1-1-.11l.22-1.18,1.81-11.21c.07-.22.5-.4.72-.48a.73.73,0,0,1,.66.05l6,3.48.08,0A.38.38,0,0,1,55.9,34.58Z"/><path class="t" d="M55.9,34.58a1.19,1.19,0,0,1-.55,1,.41.41,0,0,1-.34.06.21.21,0,0,1-.1-.06.4.4,0,0,1-.12-.31,1.2,1.2,0,0,1,.56-1,.39.39,0,0,1,.35-.06l.08,0A.38.38,0,0,1,55.9,34.58Z"/><path class="u" d="M49.72,32.55,48,42.66l-.15.79-.05,0a1.41,1.41,0,0,1-.51.18l2-11.41Z"/><polygon class="v" points="44.52 58.81 42.67 57.74 42.11 55.4 41.53 57.09 39.68 56.02 41.17 58.13 40.6 59.81 42.1 59.43 43.59 61.54 43.02 59.19 44.52 58.81"/><polygon class="w" points="16.37 43.52 13.53 41.89 12.67 38.28 11.78 40.88 8.95 39.24 11.23 42.47 10.35 45.06 12.65 44.48 14.94 47.71 14.07 44.11 16.37 43.52"/></g></svg>