<svg xmlns="http://www.w3.org/2000/svg" viewBox="0 0 127.11 115.42"><defs><style>.a{isolation:isolate;}.b{fill:#8e0a20;}.c{fill:#aa182a;}.d{fill:#be1e2d;}.e{fill:#ef4136;}.f{fill:#d32622;}.g{fill:#fbca01;}.h{fill:#ffdba9;}.i{fill:#06355f;}.j{fill:#022950;}.k{fill:#1a1a1a;}.l{fill:#f7941e;}.m{fill:#f1c07d;}.n{fill:#e5841a;}.o{fill:#e6e7e8;}.p{fill:#a7a9ac;}.q{fill:#d1d3d4;}.r{fill:#909294;}.s{fill:#818285;}.t{fill:#5a5b5c;}.u{fill:#292929;}.v{fill:#252525;}.w{fill:#444;}.x{fill:#3a3a3a;}.y{fill:#232323;}.z{fill:#333;}.aa{fill:#eec37e;}.ab{fill:#4f2d12;}.ac{fill:#ffde17;}.ad{fill:#ffbd1a;}</style></defs><title>Ресурс 4</title><g class="a"><polygon class="b" points="79.51 19.17 79.58 41.91 58.73 53.95 58.66 31.21 79.51 19.17"/><polygon class="c" points="58.73 53.95 52.61 50.4 52.55 27.66 58.66 31.21 58.73 53.95"/><polygon class="d" points="58.66 31.21 52.55 27.66 73.4 15.62 79.51 19.17 58.66 31.21"/></g><g class="a"><polygon class="e" points="101.5 68.74 60.76 45.06 60.73 37.32 101.48 61 101.5 68.74"/><polygon class="f" points="101.48 61 60.73 37.32 73.49 29.95 114.24 53.63 101.48 61"/><polygon class="b" points="120.78 32.17 120.83 49.83 120.85 57.57 101.5 68.74 101.48 61 114.24 53.63 114.19 35.98 120.78 32.17"/><polygon class="e" points="114.24 53.63 73.49 29.95 73.44 12.3 114.19 35.98 114.24 53.63"/><polygon class="f" points="78.48 27.07 78.47 21 109.2 38.86 109.21 44.93 78.48 27.07"/><polygon class="f" points="114.19 35.98 73.44 12.3 80.03 8.49 120.78 32.17 114.19 35.98"/></g><g class="a"><polygon class="b" points="127.05 46.49 127.11 69.23 106.26 81.27 106.19 58.52 127.05 46.49"/><polygon class="c" points="110.2 60.83 123.06 53.4 123.1 66.92 110.24 74.35 110.2 60.83"/><polygon class="c" points="106.26 81.27 100.15 77.71 100.08 54.97 106.19 58.52 106.26 81.27"/><polygon class="d" points="106.19 58.52 100.08 54.97 120.93 42.94 127.05 46.49 106.19 58.52"/></g><path class="g" d="M93.22,15.71a3.1,3.1,0,0,0-1.33.48,17.69,17.69,0,0,0-4.84,5,1.68,1.68,0,0,0-.3.56,1.26,1.26,0,0,0,.07.66,7.1,7.1,0,0,0,2.39,3s3.68-5.36,4-5.85C93.91,18.51,96.21,15.51,93.22,15.71Z"/><path class="h" d="M61.37,65.22a.53.53,0,0,0-.17.36c0,.19.25.28.44.31a3.07,3.07,0,0,0,2.78-1c.79-.89,1-2.18,1.74-3.11.47-.58,1.16-1.06,1.25-1.8a3.16,3.16,0,0,0-.06-.81,7.11,7.11,0,0,1,0-2.16c-.44,0-.89-.07-1.33-.08s-1-.12-1.29,0-.44,1.55-.54,2a20.5,20.5,0,0,1-1.47,4.22A10.71,10.71,0,0,1,61.37,65.22Z"/><path class="h" d="M77.86,17.59l-1.8,4.58c-.3.77-.61,1.55-1,2.3A33.44,33.44,0,0,1,71,30.57c-1.56,2-2.8,3.39-2.58,3.38A37.75,37.75,0,0,0,64,36.68,4.75,4.75,0,0,0,65.9,36a8.12,8.12,0,0,0-2,1A6.66,6.66,0,0,0,66,36.18a11.05,11.05,0,0,0-2,1,6.39,6.39,0,0,0,2.68-.85l-2,1.25a15.2,15.2,0,0,0,4.24-2,4.72,4.72,0,0,0-1.63,1.09,2.7,2.7,0,0,0,2.21-1.13,6.47,6.47,0,0,0,.3-.77c.29-.73,5.82-5.46,6.43-6.32A7.53,7.53,0,0,0,76.92,27l3.06-7a1,1,0,0,0,.12-.72,1,1,0,0,0-.5-.5l-1.76-1.09c0,.29-.08.58-.11.87Z"/><path class="h" d="M60.63,55c-.5,1.38-1.06,2.74-1.69,4.07a9.76,9.76,0,0,1-2.15,3.24.67.67,0,0,0-.24.34c0,.29.3.46.58.53a2.93,2.93,0,0,0,2.22,0,2.57,2.57,0,0,0,.75-.79,24.42,24.42,0,0,1,1.91-3,3.36,3.36,0,0,0,.68-.87,2.51,2.51,0,0,0,.13-.82,19.57,19.57,0,0,0-.08-2.42,3.11,3.11,0,0,1-1.94-.32Z"/><path class="i" d="M86.75,37.58a7.8,7.8,0,0,1-1,3.82,5.06,5.06,0,0,1-3.21,2.35,42.36,42.36,0,0,1-6,1.07,17.81,17.81,0,0,0-2,.53c-1,.31-1.93.65-2.89.95a8.14,8.14,0,0,0-.16,1.78A12.58,12.58,0,0,1,69.92,53a29.71,29.71,0,0,0-2.15,4.74,4.54,4.54,0,0,1-3.45-.9c.12-1.49,1.37-6.44,1.93-9,.11-.55.19-1,.24-1.28s.08-.67.1-1t0,0c0-.33.09-.65.14-1a3.43,3.43,0,0,1,.89-1.78,4.61,4.61,0,0,1,1.49-.82A45.69,45.69,0,0,0,76,38.4c.26-.18.53-.34.8-.51l-1.92,1,0,0-.44.22-1.1.53,0,0a50.14,50.14,0,0,1-6.5,2.45c-.06.64-.09,1.29-.1,1.93v.47c0,.22,0,.45,0,.67a8.18,8.18,0,0,1-.1,1,11.39,11.39,0,0,1-.87,2.52,58.88,58.88,0,0,0-2.56,7.33,3.17,3.17,0,0,1-1,.12,3.38,3.38,0,0,1-1.85-.56s-.08,0-.1-.08a.45.45,0,0,1,0-.2A117.1,117.1,0,0,0,62.27,42,5.65,5.65,0,0,1,64,38.42a12.85,12.85,0,0,1,3.48-2.06c1.25-.54,2.51-1,3.75-1.59A39.45,39.45,0,0,0,76,32.22c.53-.32,1-.67,1.56-1a6.57,6.57,0,0,1,1.87,1.35,10.23,10.23,0,0,0,.92.94,4.1,4.1,0,0,0,1.11.6c1.67.84,3.34,1.66,5,2.48a.54.54,0,0,1,.22.15.68.68,0,0,1,.08.31C86.75,37.21,86.75,37.39,86.75,37.58Z"/><path class="j" d="M86.75,37.58a5.19,5.19,0,0,1-1.29-.13A20.55,20.55,0,0,1,80,35.69a10,10,0,0,1-3.22-2.59c-.19-.24-.49-.55-.77-.88.53-.32,1-.67,1.56-1a6.57,6.57,0,0,1,1.87,1.35,10.23,10.23,0,0,0,.92.94,4.1,4.1,0,0,0,1.11.6c1.67.84,3.34,1.66,5,2.48a.54.54,0,0,1,.22.15.68.68,0,0,1,.08.31C86.75,37.21,86.75,37.39,86.75,37.58Z"/><path class="k" d="M86.4,6.18l1,1a8.81,8.81,0,0,1,1.11,1.69c.12-.37.44-1.1.83-1.06s.33.76.19,1.2-1.91,1.22-2.34,1.53c-.67.49-1.13,5.6-1.31,6.9-.08.61.69.33,1.6-.62a22.6,22.6,0,0,0,2.62-2.92,5.24,5.24,0,0,1-.35,2.25c.68-1.38,1.92-2.46,2.38-3.93a7.64,7.64,0,0,0,.29-2c.09-1.72.11-3.45.08-5.17a10.36,10.36,0,0,0-.24-2.29A3.6,3.6,0,0,0,91.08.82,4.66,4.66,0,0,0,88.6,0c-1.89-.16-4,.11-5.26,1.52a5.67,5.67,0,0,0-1.25,3.31c-.11,1.19,0,2.39-.1,3.59a12.9,12.9,0,0,1-.55,2.95,7,7,0,0,0-.55,2.64c.64-.77,3.08-.79,3.67-1.6.12-.17.73-.57.62-.75s-1.41-.74-1.5-.81c-.52-.44-.53-.4-.61-1.08a17,17,0,0,1,.39-7.28C84.13,4.15,85.16,4.94,86.4,6.18Z"/><path class="l" d="M90,17.53c-.64,0-1.06.67-1.36,1.24A13.54,13.54,0,0,0,88,20.09c-.06.14-.11.29-.16.42a6.23,6.23,0,0,0-.3,2.87,6.08,6.08,0,0,1,.14,1.41,4.62,4.62,0,0,1-.35,1.13,14.42,14.42,0,0,0-1.39,5.84A26.28,26.28,0,0,0,87.09,37a5.72,5.72,0,0,1-2.2,0l-.54-.06c-1.38-.14-8.91-4-7.81-5.68a5.62,5.62,0,0,0,.91-1.69c1.56-4.78-.24-6.72.72-9.63a12.45,12.45,0,0,1,.79-1.8l2.7-5.34a.4.4,0,0,1,.19-.23.26.26,0,0,1,.23,0,10.48,10.48,0,0,1,4.47,1.65C87.83,15.08,88.8,16.53,90,17.53Z"/><path class="l" d="M79.65,13.88a7.09,7.09,0,0,0-.78,1.18c-.47.81-.91,1.64-1.32,2.48a.81.81,0,0,0-.1.36.83.83,0,0,0,.14.3,4.72,4.72,0,0,0,1.29,1.23.6.6,0,0,0,.58.11.72.72,0,0,0,.2-.19,8.74,8.74,0,0,0,2-4c.06-.48,0-1,.06-1.44,0-.28.63-1.24.37-1.45C81.6,12.11,79.94,13.55,79.65,13.88Z"/><path class="m" d="M84.07,11.05a1.62,1.62,0,0,1-.49,1.9.7.7,0,0,0-.22.2.66.66,0,0,0,0,.25c0,.59,0,1.18,0,1.78a.18.18,0,0,0,.26.19,15.37,15.37,0,0,0,2.2-.74,2.25,2.25,0,0,0,.77-.47A13.35,13.35,0,0,1,88.31,9.5c-1.28.63-2.61,1.74-4,1.6,0,0-.07,0-.08,0s0,0,0,0Z"/><path class="h" d="M83.49,2.55a2.88,2.88,0,0,0-.44.68,6.3,6.3,0,0,0-.27,1.29,24.37,24.37,0,0,0-.28,4.67,4,4,0,0,0,.57,2.23c.85,1.08,4.24-.18,5.77-1.58.92-.83.92-.67,1.09-1.17a.77.77,0,0,0-.56-1c-.43-.07-.74.4-.93.8-.62-.61-.82-1.54-1.39-2.2a10.19,10.19,0,0,0-1.34-1.1,9.3,9.3,0,0,1-1.93-2.71C83.71,2.39,83.6,2.44,83.49,2.55Z"/><path class="k" d="M81,16c.14-.43.63-.6,1-.81a5.21,5.21,0,0,0,2.07-3c0-.1-.44.51-.48.42a.51.51,0,0,0-.29-.21,3.15,3.15,0,0,0-1.09-.21C80.38,12.18,80.75,14.78,81,16Z"/><path class="j" d="M77.68,37.78A8.61,8.61,0,0,0,76,38.4c-.38.16-.75.34-1.12.52l0,0-.44.22-1.1.53,0,0a50.14,50.14,0,0,1-6.5,2.45c-.06.64-.09,1.29-.1,1.93v.47c0,.22,0,.45,0,.67a8.18,8.18,0,0,1-.1,1,11.39,11.39,0,0,1-.87,2.52,58.88,58.88,0,0,0-2.56,7.33,3.17,3.17,0,0,1-1,.12,10.12,10.12,0,0,1,1.06-3.06,35.6,35.6,0,0,0,3.08-11.5l5.15-2.15a16.13,16.13,0,0,1,2.41-.87,10.33,10.33,0,0,0,1.82-.46,1.9,1.9,0,0,0,1.18-1.36A.9.9,0,0,0,77.68,37.78Z"/><path class="n" d="M87.83,20.51a6.23,6.23,0,0,0-.3,2.87,6.08,6.08,0,0,1,.14,1.41,4.62,4.62,0,0,1-.35,1.13,14.42,14.42,0,0,0-1.39,5.84A26.28,26.28,0,0,0,87.09,37a5.72,5.72,0,0,1-2.2,0A9.32,9.32,0,0,1,84.14,32a17.89,17.89,0,0,1,.78-3.21c.81-2.59,1.6-5.19,2.4-7.79a1.47,1.47,0,0,1,.67-.93C87.93,20.23,87.88,20.38,87.83,20.51Z"/><path class="h" d="M90.26,25.36a1,1,0,0,0-.5-.51c-.59-.36-1.18-.72-1.76-1.09l-.12.88.13-1c-.59,1.52-1.19,3.05-1.79,4.57-.3.78-.61,1.55-1,2.3a33.51,33.51,0,0,1-4.14,6.11c-.57.71-1.15,1.44-1.77,2.12.52.28.78,1,1.22,1.36,1.63-1.64,5.32-5,5.79-5.65A8,8,0,0,0,87.07,33l3.07-7A1.06,1.06,0,0,0,90.26,25.36Z"/><path class="l" d="M87.68,19.45a8.75,8.75,0,0,0-.51,2.84c0,.51,0,1-.12,1.54a6.22,6.22,0,0,1-.69,2.08,14.06,14.06,0,0,0,3.28,1.34,3,3,0,0,0,1.23,0,12.28,12.28,0,0,0,1-6.27,5.12,5.12,0,0,0-.28-1.29,4.57,4.57,0,0,0-.89-1.36c-.25-.29-.66-.89-1.09-.88C88.75,17.46,88,18.78,87.68,19.45Z"/><path class="h" d="M79.07,38.6a6.39,6.39,0,0,0-2.87.34,4.15,4.15,0,0,0,1.92,0,21.67,21.67,0,0,0-3.79,1.74,4,4,0,0,0,2.53-.95,7.42,7.42,0,0,0-2.66,1.41,7.42,7.42,0,0,0,3-.95,10.1,10.1,0,0,0-2.52,1.56,11.36,11.36,0,0,0,3-1.13l-1.77,1.08A9.27,9.27,0,0,0,80,40.51a1.22,1.22,0,0,0,.66-.66,1,1,0,0,0-.47-1A2.9,2.9,0,0,0,79.07,38.6Z"/><g class="a"><polygon class="o" points="51.83 99.7 51.78 115.42 0 85.52 0.04 69.8 51.83 99.7"/><polygon class="p" points="51.83 99.7 67.48 90.6 67.44 106.32 51.78 115.42 51.83 99.7"/><polygon class="q" points="0.04 69.8 15.7 60.7 67.48 90.6 51.83 99.7 0.04 69.8"/></g><g class="a"><polygon class="r" points="44.5 79.73 34.42 85.59 18.53 76.42 28.62 70.56 44.5 79.73"/><polygon class="s" points="44.5 79.73 44.5 80.94 34.42 86.79 34.42 85.59 44.5 79.73"/><polygon class="t" points="34.42 85.59 34.42 86.79 18.53 77.62 18.53 76.42 34.42 85.59"/></g><polygon class="u" points="12.61 22.82 10.65 23.96 10.56 55.4 62.34 85.29 64.3 84.16 64.39 52.72 12.61 22.82"/><g class="a"><polygon class="k" points="62.43 53.85 62.34 85.29 10.56 55.4 10.65 23.96 62.43 53.85"/><polygon class="v" points="62.43 53.85 64.39 52.72 64.3 84.16 62.34 85.29 62.43 53.85"/><polygon class="w" points="10.65 23.96 12.61 22.82 64.39 52.72 62.43 53.85 10.65 23.96"/></g><polygon class="x" points="37.41 63.24 28.74 58.24 26.79 59.38 24.77 74.97 37.38 82.24 39.33 81.11 37.41 63.24"/><g class="a"><polygon class="y" points="35.45 64.38 37.38 82.24 24.77 74.97 26.79 59.38 35.45 64.38"/><polygon class="z" points="35.45 64.38 37.41 63.24 39.33 81.11 37.38 82.24 35.45 64.38"/><polygon class="x" points="26.79 59.38 28.74 58.24 37.41 63.24 35.45 64.38 26.79 59.38"/></g><path class="aa" d="M99.26,14.83a1.18,1.18,0,0,1,0,.42,1.18,1.18,0,0,1-.63.63,5.21,5.21,0,0,1-3.91.38.18.18,0,0,1-.13-.08.21.21,0,0,1,0-.16c.12-.76.23-1.51.35-2.27l1.82-.85c.45-.21,1.29-.83,1.78-.82C99.58,12.08,99.22,14,99.26,14.83Z"/><path class="h" d="M93.29,13.18c.23.58.59,1.21,1.21,1.29a1.88,1.88,0,0,0,.93-.2A12.71,12.71,0,0,0,99,12.33a5.56,5.56,0,0,0,2-4,4.46,4.46,0,0,0-2.08-3.89,7.4,7.4,0,0,0-3.19-.78c-2.39-.18-2.8,1.22-3.12,3.31A12.14,12.14,0,0,0,93.29,13.18Z"/><path class="aa" d="M77.12,75.25a2.63,2.63,0,0,0-.69.64.75.75,0,0,0,0,.88A.87.87,0,0,0,77,77a6.64,6.64,0,0,0,4.68-1.13,39.37,39.37,0,0,1,4.21-2.56,3.16,3.16,0,0,0,1.07-.62c.44-.46-.35-2.24-.32-2.87s.88-.23.48-.72a2.27,2.27,0,0,0-1.59-.67c-.75-.09-1.4-.59-2-.12s-1,1.61-1.41,2.2A22.37,22.37,0,0,1,77.12,75.25Z"/><path class="aa" d="M70.92,72.08a2.23,2.23,0,0,0-.69.64.73.73,0,0,0,0,.88,1,1,0,0,0,.48.21,6.69,6.69,0,0,0,4.68-1.13,41.46,41.46,0,0,1,4.21-2.56,3.31,3.31,0,0,0,1.08-.62c.43-.46-.36-2.24-.33-2.87s.88-.23.49-.72a2.37,2.37,0,0,0-1.6-.68c-.75-.08-1.39-.58-2-.12s-1,1.61-1.41,2.21A22.55,22.55,0,0,1,70.92,72.08Z"/><path class="k" d="M92,39.49l-8,4.87a5.13,5.13,0,0,0-1.59,1.29,5,5,0,0,0-.6,1.39c-2,6.27-3.55,12.63-5.76,18.81A12.67,12.67,0,0,0,80.9,67.2l5.42-13.87A16.1,16.1,0,0,1,88.56,49a11,11,0,0,1,4-2.91,16.07,16.07,0,0,0,3.13-1.64,3.42,3.42,0,0,0,1.48-3c-.24-1.55-1.87-2.48-3.4-2.79a2.56,2.56,0,0,0-1.4,0,1.1,1.1,0,0,0-.77,1.06Z"/><path class="ab" d="M93.18,2.9a1.52,1.52,0,0,0,.22,1.79,7,7,0,0,0,1.52,1.18,2.66,2.66,0,0,1,1.19,1.48l.27-.76a1.77,1.77,0,0,1,.67,1.95A3.82,3.82,0,0,0,98.9,7a3.41,3.41,0,0,1,.16,1.79.68.68,0,0,1,.76-.52.68.68,0,0,1,.51.76,1.66,1.66,0,0,1-.49.73,3,3,0,0,0-.3,3.4L102.13,10c1-1.28,2.1-2.71,2.07-4.35a4.42,4.42,0,0,0-1.82-3.31A8.08,8.08,0,0,0,98.77.87a6.76,6.76,0,0,0-3.1.09,7.77,7.77,0,0,0-1.94,1,1.32,1.32,0,0,0-.51.54c-.08.24,0,.57.28.6Z"/><path class="v" d="M87.85,47.3a5.88,5.88,0,0,0-1.11,1,6,6,0,0,0-.9,2.31Q84.16,57.81,82.46,65a14.83,14.83,0,0,1-.9,2.93,1.23,1.23,0,0,0-.17.71,1,1,0,0,0,.38.53A7.65,7.65,0,0,0,87.16,71l1.89-5.92a93.11,93.11,0,0,0,3.31-12.25.37.37,0,0,1,.12-.25.35.35,0,0,1,.17-.06,35.25,35.25,0,0,0,9.54-2.75,5.61,5.61,0,0,0,2.38-1.66,6.1,6.1,0,0,0,.85-3.29.58.58,0,0,0-.12-.52.63.63,0,0,0-.35-.11c-1.87-.15-3.78.15-5.62-.2-1-.19-2-.57-3-.84a3.07,3.07,0,0,0-2.86.38A53.92,53.92,0,0,0,87.85,47.3Z"/><path class="ab" d="M93.43,4.74a15.74,15.74,0,0,0-.94,3.58,11.67,11.67,0,0,1-.19-2.57,3.23,3.23,0,0,1,.51-1.84.83.83,0,0,1,.63-.37C94.25,3.55,93.54,4.45,93.43,4.74Z"/><path class="ac" d="M97.18,16a11.24,11.24,0,0,0,3.08-.89c1.9,1.33,4,1.85,5.88,3.18-1.42.37-1,11.68-.42,12.11a1.26,1.26,0,0,1,.44.42,1.39,1.39,0,0,1,.1.5q.3,5.7.62,11.41a3.32,3.32,0,0,1-.6,2.61,2.82,2.82,0,0,1-1.4.64,12.52,12.52,0,0,1-6.15-.54,13.41,13.41,0,0,1-5-2.58A9.07,9.07,0,0,1,91.57,40a2,2,0,0,1-.2-.56,2.61,2.61,0,0,1,0-.79A20.17,20.17,0,0,0,91.57,35c-.06-4-.13-7.93-.4-11.88a15.78,15.78,0,0,1,0-3.57,23.39,23.39,0,0,1,1-3.25c.25-.71,2.93-.89,3-.8C95.75,16,95.75,16,97.18,16Z"/><path class="q" d="M95.07,38.85a5.59,5.59,0,0,1-1.13.87,10.63,10.63,0,0,1-9.64,0,6.2,6.2,0,0,1-1.16-.89c-1.43-1.5-1-3.43,1.13-4.7a10.67,10.67,0,0,1,9.64,0C96.12,35.41,96.51,37.34,95.07,38.85Z"/><path class="p" d="M95.07,38.85a5.59,5.59,0,0,1-1.13.87,10.63,10.63,0,0,1-9.64,0,6.2,6.2,0,0,1-1.16-.89,3.1,3.1,0,0,1,1.73-2.2,9.32,9.32,0,0,1,8.45,0A3.15,3.15,0,0,1,95.07,38.85Z"/><path class="ac" d="M83.15,39a2.51,2.51,0,0,1,.46-3,.5.5,0,0,1,.45-.16.54.54,0,0,1,.23.24A5.2,5.2,0,0,1,85,38.9a.57.57,0,0,1-.08.29.51.51,0,0,1-.29.15A1.34,1.34,0,0,1,83.15,39Z"/><path class="ad" d="M84.58,37.1a2.3,2.3,0,0,1,2.58-1.5.47.47,0,0,1,.39.27.53.53,0,0,1,0,.33,4.82,4.82,0,0,1-1.73,2.37.45.45,0,0,1-.26.12.54.54,0,0,1-.3-.15A1.48,1.48,0,0,1,84.58,37.1Z"/><path class="ad" d="M89.08,37.82a2.28,2.28,0,0,1,2.58-1.5.46.46,0,0,1,.39.26.57.57,0,0,1,0,.34,4.91,4.91,0,0,1-1.73,2.37.43.43,0,0,1-.26.11.47.47,0,0,1-.3-.14A1.49,1.49,0,0,1,89.08,37.82Z"/><path class="ad" d="M91.55,37a2.37,2.37,0,0,1-1.93-2.33.5.5,0,0,1,.16-.46.58.58,0,0,1,.32,0,4.69,4.69,0,0,1,2.58,1.28.49.49,0,0,1,.16.24.59.59,0,0,1-.08.34A1.38,1.38,0,0,1,91.55,37Z"/><path class="ad" d="M89.8,40.85a2.39,2.39,0,0,1-1.94-2.33.53.53,0,0,1,.17-.46.57.57,0,0,1,.32,0,4.63,4.63,0,0,1,2.57,1.28.49.49,0,0,1,.16.24.51.51,0,0,1-.07.34A1.4,1.4,0,0,1,89.8,40.85Z"/><path class="ac" d="M85.31,40.35a2.49,2.49,0,0,1,.46-3.05.45.45,0,0,1,.44-.15c.1,0,.17.14.23.23a5.2,5.2,0,0,1,.71,2.89.69.69,0,0,1-.07.29.48.48,0,0,1-.3.15A1.29,1.29,0,0,1,85.31,40.35Z"/><path class="ac" d="M86.94,34.93a2.22,2.22,0,0,1,2.89.56A.49.49,0,0,1,90,36a.53.53,0,0,1-.23.24,4.56,4.56,0,0,1-2.78.68.46.46,0,0,1-.27-.09.53.53,0,0,1-.14-.31A1.46,1.46,0,0,1,86.94,34.93Z"/><path class="ac" d="M91,38.15a2.21,2.21,0,0,1,2.89.55.5.5,0,0,1,.14.47.51.51,0,0,1-.23.23,4.52,4.52,0,0,1-2.77.68.53.53,0,0,1-.27-.08.5.5,0,0,1-.14-.32A1.45,1.45,0,0,1,91,38.15Z"/><path class="ac" d="M95.09,37.45a2.5,2.5,0,0,1-.56,3,.48.48,0,0,1-.45.15.6.6,0,0,1-.22-.25,5.24,5.24,0,0,1-.62-2.91.51.51,0,0,1,.08-.28.48.48,0,0,1,.31-.15A1.33,1.33,0,0,1,95.09,37.45Z"/><path class="ad" d="M93.6,39.28A2.28,2.28,0,0,1,91,40.69a.51.51,0,0,1-.39-.28.58.58,0,0,1,0-.34,4.91,4.91,0,0,1,1.81-2.3.43.43,0,0,1,.26-.11.5.5,0,0,1,.3.16A1.48,1.48,0,0,1,93.6,39.28Z"/><path class="ad" d="M89.12,38.41a2.28,2.28,0,0,1-2.62,1.41.49.49,0,0,1-.38-.28.58.58,0,0,1,0-.34A4.9,4.9,0,0,1,88,36.89a.52.52,0,0,1,.26-.1.47.47,0,0,1,.3.16A1.46,1.46,0,0,1,89.12,38.41Z"/><path class="ad" d="M86.63,39.14a2.38,2.38,0,0,1,1.86,2.39.53.53,0,0,1-.18.46A.5.5,0,0,1,88,42a4.69,4.69,0,0,1-2.53-1.37.44.44,0,0,1-.15-.25.49.49,0,0,1,.08-.33A1.39,1.39,0,0,1,86.63,39.14Z"/><path class="ad" d="M88.5,35.36a2.38,2.38,0,0,1,1.87,2.39.39.39,0,0,1-.51.47,4.66,4.66,0,0,1-2.53-1.37.58.58,0,0,1-.15-.25.5.5,0,0,1,.09-.33A1.34,1.34,0,0,1,88.5,35.36Z"/><path class="ac" d="M93,36a2.51,2.51,0,0,1-.56,3,.46.46,0,0,1-.45.14.54.54,0,0,1-.22-.25A5.22,5.22,0,0,1,91.13,36a.55.55,0,0,1,.09-.28.54.54,0,0,1,.3-.15A1.35,1.35,0,0,1,93,36Z"/><path class="ac" d="M91.18,41.37a2.24,2.24,0,0,1-2.88-.66.52.52,0,0,1-.13-.47.59.59,0,0,1,.24-.23,4.55,4.55,0,0,1,2.79-.58.48.48,0,0,1,.27.09.54.54,0,0,1,.13.32A1.48,1.48,0,0,1,91.18,41.37Z"/><path class="ac" d="M87.22,38a2.22,2.22,0,0,1-2.87-.65.48.48,0,0,1-.13-.47.45.45,0,0,1,.24-.23,4.47,4.47,0,0,1,2.79-.58.46.46,0,0,1,.27.09.58.58,0,0,1,.13.32A1.48,1.48,0,0,1,87.22,38Z"/><path class="o" d="M89.1,44.83c-6.45,0-6.79-6.88-6.81-7.88a2.81,2.81,0,0,0,.85,1.88,6.2,6.2,0,0,0,1.16.89,10.63,10.63,0,0,0,9.64,0,5.59,5.59,0,0,0,1.13-.87,2.92,2.92,0,0,0,.84-1.7h0S96.06,44.83,89.1,44.83Z"/><path class="aa" d="M107.6,35.52A85.51,85.51,0,0,1,99,38.77a3.74,3.74,0,0,1-1.14.24,4,4,0,0,1-1.12-.22l-2.86-.87,1.61,1.61a.52.52,0,0,1,.17.26c.07.26-.23.45-.48.54a9.92,9.92,0,0,1-4.32.58,1.21,1.21,0,0,0,.94.78,1.64,1.64,0,0,0-1.06-.36,2.19,2.19,0,0,0,1.44,1.23.75.75,0,0,0-1,0,6.2,6.2,0,0,0,4.7.52c.73-.21,1.41-.56,2.12-.84,4.58-1.84,10.08-1,14.27-3.57a1.67,1.67,0,0,0,.76-.77,1.56,1.56,0,0,0,0-.83,12,12,0,0,0-.4-1.54c-.95-3.07-2-6.12-3.23-9.11a1.45,1.45,0,0,0-.32-.55,1.24,1.24,0,0,0-.53-.25A5,5,0,0,0,105,26c-1.63.83-.17,3.19.3,4.44A47.21,47.21,0,0,0,107.6,35.52Z"/><path class="ad" d="M102.68,23a35.75,35.75,0,0,0,1.49,5.87c.22.23,4.83.68,6.46,0A47.17,47.17,0,0,0,109,22.42a10.14,10.14,0,0,0-1.14-2.61,4.07,4.07,0,0,0-2.2-1.72C103.15,17.39,102.46,21.27,102.68,23Z"/></svg>