<?xml version="1.0" standalone="no"?>
<!DOCTYPE svg PUBLIC "-//W3C//DTD SVG 20010904//EN"
 "http://www.w3.org/TR/2001/REC-SVG-20010904/DTD/svg10.dtd">
<svg version="1.0" xmlns="http://www.w3.org/2000/svg"
 width="300.000000pt" height="391.000000pt" viewBox="0 0 300.000000 391.000000"
 preserveAspectRatio="xMidYMid meet">

<g transform="translate(0.000000,391.000000) scale(0.100000,-0.100000)"
fill="#000000" stroke="none">
<path d="M8 2333 c-2 -868 -2 -1747 0 -1955 l3 -376 462 295 c254 163 584 374
733 469 150 96 279 176 288 180 18 7 31 -2 881 -551 325 -210 596 -385 603
-389 9 -6 12 387 12 1948 l0 1956 -1489 0 -1490 0 -3 -1577z m1602 502 l0
-235 230 0 230 0 0 -105 0 -105 -230 0 -230 0 0 -230 0 -230 -105 0 -105 0 0
230 0 230 -235 0 -235 0 0 105 0 105 233 2 232 3 3 233 2 232 105 0 105 0 0
-235z"/>
</g>
</svg>
