<?xml version="1.0" encoding="utf-8"?>
<!-- Generator: Adobe Illustrator 24.0.2, SVG Export Plug-In . SVG Version: 6.00 Build 0)  -->
<svg version="1.1" id="Слой_1" xmlns="http://www.w3.org/2000/svg" xmlns:xlink="http://www.w3.org/1999/xlink" x="0px" y="0px"
	 viewBox="0 0 300 391" style="enable-background:new 0 0 300 391;" xml:space="preserve">
<style type="text/css">
	.st0{fill:#5D529F;}
</style>
<g transform="translate(0.000000,391.000000) scale(0.100000,-0.100000)">
	<path class="st0" d="M10,1960C10,888,12,10,14,10c5,0,190,118,906,576c283,181,531,339,550,351l35,22l95-61c52-34,349-225,660-426
		s602-389,648-419l82-53v1955v1955H1500H10V1960z M2335,3000l60-60l-513-513l-512-512l-241,241l-240,240l58,60l58,60l180-178
		l180-178l450,450c247,248,452,450,455,450S2302,3033,2335,3000z"/>
</g>
</svg>
