<svg xmlns="http://www.w3.org/2000/svg" viewBox="0 0 88.48 123.11"><defs><style>.a{fill:#dda57f;}.b{fill:#eab38c;}.c{isolation:isolate;}.d{fill:#141314;}.e{fill:#211f20;}.f{fill:#232223;}.g{fill:#323133;}.h{fill:#383739;}.i{fill:#cccdce;}.j{fill:#a1a2a2;}.k{fill:#1b1819;}.l{fill:#1d1c1d;}.m{fill:#181516;}.n{fill:#1e1b1c;}.o{fill:#b7b8b9;}.p{fill:#7f7f80;}.q{fill:#acadad;}.r{fill:#1e1a1b;}.s{fill:#191717;}.t{fill:#cacbcc;}.u{fill:#aaaaab;}.v{fill:#191617;}.w{fill:#abacac;}.x{fill:#787879;}.y{fill:#414042;}.z{fill:#6d6e71;}.aa{fill:#f1bb95;}.ab{fill:#ef4136;}</style></defs><title>Ресурс 5</title><path class="a" d="M58,22.5l5.61-1.29a4,4,0,0,0,1.53-.59,1.28,1.28,0,0,0,.44-1.47A2.45,2.45,0,0,0,64,18a18.4,18.4,0,0,0-7.14-.47,14.87,14.87,0,0,0-5.53,1.25c-1.48.77-4.87,4.2-1.22,4.65A22.55,22.55,0,0,0,58,22.5Z"/><path class="b" d="M60.45,20l5.61-1.3a3.94,3.94,0,0,0,1.53-.59A1.29,1.29,0,0,0,68,16.68a2.5,2.5,0,0,0-1.63-1.17A18.59,18.59,0,0,0,59.27,15a14.72,14.72,0,0,0-5.53,1.26c-1.48.76-4.87,4.19-1.22,4.65A22.79,22.79,0,0,0,60.45,20Z"/><path class="a" d="M66.39,67.36c1.14-1.54,2.29-3.07,3.44-4.61A3.89,3.89,0,0,1,71,61.59a1.3,1.3,0,0,1,1.53.18,2.49,2.49,0,0,1,.41,2,18.52,18.52,0,0,1-2.45,6.73A14.57,14.57,0,0,1,67.1,75c-1.29,1-5.8,2.77-4.75-.75A22.58,22.58,0,0,1,66.39,67.36Z"/><path class="b" d="M69.62,66.13l3.45-4.61a3.89,3.89,0,0,1,1.16-1.16,1.29,1.29,0,0,1,1.52.18,2.46,2.46,0,0,1,.42,2,18.52,18.52,0,0,1-2.45,6.73,15.06,15.06,0,0,1-3.38,4.55c-1.29,1-5.8,2.76-4.75-.76A22.76,22.76,0,0,1,69.62,66.13Z"/><g class="c"><polygon class="d" points="84.43 49.85 82.78 48.89 82.78 47.93 84.43 48.9 84.43 49.85"/><polygon class="e" points="74.25 61.15 72.6 60.19 73.3 59.78 74.95 60.74 74.25 61.15"/><polygon class="d" points="74.95 60.74 73.3 59.78 73.28 54.37 74.94 55.33 74.95 60.74"/><polygon class="e" points="74.94 55.33 73.28 54.37 82.78 48.89 84.43 49.85 74.94 55.33"/><polygon class="f" points="74.94 55.33 73.28 54.37 73.28 53.89 74.93 54.85 74.94 55.33"/><polygon class="f" points="74.25 61.15 72.6 60.19 72.59 54.77 74.24 55.73 74.25 61.15"/><polygon class="g" points="74.93 54.85 74.94 55.33 74.95 60.74 74.25 61.15 74.24 55.73 74.24 55.25 74.93 54.85"/><polygon class="h" points="74.24 55.25 72.58 54.29 73.28 53.89 74.93 54.85 74.24 55.25"/><polygon class="f" points="74.24 55.73 72.59 54.77 72.58 54.29 74.24 55.25 74.24 55.73"/><polygon class="d" points="77.34 47.31 75.69 46.35 75.69 45.56 77.34 46.52 77.34 47.31"/><polygon class="e" points="61.22 68.67 59.57 67.71 60.26 67.31 61.91 68.27 61.22 68.67"/><polygon class="d" points="77.32 40.78 75.67 39.82 75.67 39.02 77.32 39.98 77.32 40.78"/><polygon class="e" points="61.9 62.86 60.24 61.9 72.59 54.77 74.24 55.73 61.9 62.86"/><polygon class="d" points="61.91 68.27 60.26 67.31 60.24 61.9 61.9 62.86 61.91 68.27"/><polygon class="f" points="61.9 62.86 60.24 61.9 60.24 61.42 61.9 62.38 61.9 62.86"/><polygon class="f" points="61.22 68.67 59.57 67.71 59.55 62.3 61.21 63.26 61.22 68.67"/><polygon class="h" points="61.21 62.78 59.55 61.81 60.24 61.42 61.9 62.38 61.21 62.78"/><polygon class="f" points="61.21 63.26 59.55 62.3 59.55 61.81 61.21 62.78 61.21 63.26"/><polygon class="e" points="48.19 76.2 46.53 75.24 47.22 74.84 48.88 75.8 48.19 76.2"/><polygon class="d" points="48.88 75.8 47.22 74.84 47.21 69.43 48.86 70.39 48.88 75.8"/><polygon class="e" points="48.86 70.39 47.21 69.43 59.55 62.3 61.21 63.26 48.86 70.39"/><polygon class="f" points="48.86 70.39 47.21 69.43 47.2 68.94 48.86 69.91 48.86 70.39"/><polygon class="f" points="48.19 76.2 46.53 75.24 46.52 69.83 48.17 70.78 48.19 76.2"/><polygon class="f" points="48.17 70.78 46.52 69.83 46.52 69.34 48.17 70.3 48.17 70.78"/><polygon class="h" points="48.17 70.3 46.52 69.34 47.2 68.94 48.86 69.91 48.17 70.3"/><polygon class="g" points="48.86 69.91 48.86 70.39 48.88 75.8 48.19 76.2 48.17 70.78 48.17 70.3 48.86 69.91"/><polygon class="e" points="45.73 65.57 44.07 64.61 75.69 46.35 77.34 47.31 45.73 65.57"/><polygon class="f" points="45.73 65.57 44.07 64.61 44.07 63.82 45.72 64.78 45.73 65.57"/><polygon class="h" points="45.72 64.78 44.07 63.82 75.69 45.56 77.34 46.52 45.72 64.78"/><polygon class="g" points="77.34 46.52 77.34 47.31 45.73 65.57 45.72 64.78 77.34 46.52"/><polygon class="e" points="38.67 76.27 37.01 75.31 46.52 69.83 48.17 70.78 38.67 76.27"/><polygon class="g" points="84.43 48.9 84.43 49.85 74.94 55.33 74.93 54.85 74.24 55.25 74.24 55.73 61.9 62.86 61.9 62.38 61.21 62.78 61.21 63.26 48.86 70.39 48.86 69.91 48.17 70.3 48.17 70.78 38.67 76.27 38.66 75.32 84.43 48.9"/><polygon class="h" points="38.66 75.32 37.01 74.36 82.78 47.93 84.43 48.9 38.66 75.32"/><polygon class="f" points="38.67 76.27 37.01 75.31 37.01 74.36 38.66 75.32 38.67 76.27"/><polygon class="e" points="45.71 59.04 44.05 58.08 75.67 39.82 77.32 40.78 45.71 59.04"/><polygon class="g" points="77.32 39.98 77.32 40.78 45.71 59.04 45.7 58.24 77.32 39.98"/><polygon class="f" points="45.71 59.04 44.05 58.08 44.05 57.28 45.7 58.24 45.71 59.04"/><polygon class="h" points="45.7 58.24 44.05 57.28 75.67 39.02 77.32 39.98 45.7 58.24"/><polygon class="i" points="43.8 52.38 42.15 51.42 51.59 45.97 53.25 46.93 43.8 52.38"/><polygon class="i" points="78.75 32.2 77.1 31.24 86.55 25.79 88.2 26.75 78.75 32.2"/><polygon class="i" points="61.28 42.29 59.62 41.33 69.07 35.88 70.72 36.84 61.28 42.29"/><polygon class="e" points="35.14 57.38 33.49 56.42 86.74 25.67 88.39 26.64 35.14 57.38"/><polygon class="j" points="35.25 49.72 33.59 48.76 42.15 51.42 43.8 52.38 35.25 49.72"/><polygon class="k" points="44.83 44.18 53.25 46.93 43.8 52.38 35.25 49.72 44.83 44.18"/><path class="l" d="M35.14,57.38,88.39,26.63l.09,29.66L35.22,87Zm49.29-7.53v-1L38.66,75.32v1l9.5-5.48,0,5.41.68-.4V70.39l12.35-7.13v5.41l.69-.4V62.86l12.34-7.13v5.42l.7-.4V55.33l9.49-5.48ZM45.7,58.24V59L77.32,40.78V40L45.7,58.24Zm0,6.54v.79L77.34,47.31v-.79L45.72,64.78Z"/><polygon class="g" points="61.9 62.38 61.9 62.86 61.91 68.27 61.22 68.67 61.21 63.26 61.21 62.78 61.9 62.38"/><polygon class="m" points="79.78 24 78.13 23.04 86.55 25.79 88.2 26.75 79.78 24"/><polygon class="i" points="79.78 24 78.13 23.04 86.72 18.08 88.37 19.05 79.78 24"/><polygon class="j" points="70.2 29.54 68.54 28.58 77.1 31.24 78.75 32.2 70.2 29.54"/><polygon class="n" points="70.2 29.54 68.54 28.58 78.13 23.04 79.78 24 70.2 29.54"/><polygon class="k" points="79.78 24 88.2 26.75 78.75 32.2 70.2 29.54 79.78 24"/><polygon class="m" points="62.3 34.1 60.65 33.13 69.07 35.88 70.72 36.84 62.3 34.1"/><polygon class="i" points="62.3 34.1 60.65 33.13 68.54 28.58 70.2 29.54 62.3 34.1"/><polygon class="j" points="52.72 39.63 51.06 38.67 59.62 41.33 61.28 42.29 52.72 39.63"/><polygon class="n" points="52.72 39.63 51.06 38.67 60.65 33.13 62.3 34.1 52.72 39.63"/><polygon class="k" points="62.3 34.1 70.72 36.84 61.28 42.29 52.72 39.63 62.3 34.1"/><polygon class="m" points="44.83 44.18 43.18 43.22 51.59 45.97 53.25 46.93 44.83 44.18"/><polygon class="i" points="44.83 44.18 43.18 43.22 51.06 38.67 52.72 39.63 44.83 44.18"/><polygon class="d" points="35.22 87.03 33.57 86.07 33.49 56.42 35.14 57.38 35.22 87.03"/><polygon class="n" points="35.25 49.72 33.59 48.76 43.18 43.22 44.83 44.18 35.25 49.72"/><polygon class="o" points="88.37 19.05 88.39 26.64 35.14 57.38 35.12 49.79 35.25 49.72 43.8 52.38 53.25 46.93 44.83 44.18 52.72 39.63 61.28 42.29 70.72 36.84 62.3 34.1 70.2 29.54 78.75 32.2 88.2 26.75 79.78 24 88.37 19.05"/><polygon class="p" points="35.14 57.38 33.49 56.42 33.47 48.83 35.12 49.79 35.14 57.38"/><polygon class="i" points="35.12 49.79 33.47 48.83 33.59 48.76 35.25 49.72 35.12 49.79"/></g><g class="c"><polygon class="o" points="85.95 1.02 87.26 7.66 78.83 14.47 85.95 1.02"/><polygon class="q" points="78.83 14.47 77.18 13.51 84.3 0.06 85.95 1.02 78.83 14.47"/><polygon class="r" points="76.75 8.4 75.09 7.43 84.28 0 85.94 0.96 76.75 8.4"/><polygon class="k" points="85.94 0.96 85.95 1.02 78.83 14.47 69.45 22.06 76.75 8.4 85.94 0.96"/><polygon class="s" points="69.45 22.06 67.8 21.1 75.09 7.43 76.75 8.4 69.45 22.06"/><polygon class="t" points="68.3 15.23 66.64 14.27 75.09 7.43 76.75 8.4 68.3 15.23"/><polygon class="u" points="61.71 28.32 60.06 27.36 66.64 14.27 68.3 15.23 61.71 28.32"/><polygon class="o" points="68.3 15.23 76.75 8.4 69.45 22.06 61.71 28.32 68.3 15.23"/><polygon class="r" points="59.02 22.73 57.37 21.77 66.64 14.27 68.3 15.23 59.02 22.73"/><polygon class="v" points="52.33 35.91 50.67 34.95 57.37 21.77 59.02 22.73 52.33 35.91"/><polygon class="w" points="44.59 42.16 42.94 41.2 49.84 27.86 51.49 28.82 44.59 42.16"/><polygon class="o" points="44.59 42.16 51.49 28.82 59.02 22.73 52.33 35.9 40.85 45.19 44.59 42.16"/><polygon class="k" points="68.3 15.23 61.71 28.32 52.33 35.91 59.02 22.73 68.3 15.23"/><polygon class="t" points="51.49 28.82 49.84 27.86 57.37 21.77 59.02 22.73 51.49 28.82"/><polygon class="t" points="40.85 45.19 39.2 44.23 42.94 41.2 44.59 42.16 40.85 45.19"/><polygon class="r" points="42.24 36.31 40.58 35.35 49.84 27.86 51.49 28.82 42.24 36.31"/><polygon class="v" points="35.2 49.76 33.55 48.8 40.58 35.35 42.24 36.31 35.2 49.76"/><polygon class="k" points="51.49 28.82 44.59 42.16 40.85 45.19 35.2 49.76 42.24 36.31 51.49 28.82"/><polygon class="x" points="35.08 49.85 33.43 48.89 32.1 42.21 33.76 43.17 35.08 49.85"/><polygon class="t" points="33.76 43.17 32.1 42.21 40.58 35.35 42.24 36.31 33.76 43.17"/><polygon class="o" points="33.76 43.17 42.24 36.31 35.2 49.75 35.08 49.85 33.76 43.17"/></g><g class="c"><path class="y" d="M34.06,51c0-.21.08-.42.14-.63l0-.06a6.07,6.07,0,0,1,.25-.67h0a6,6,0,0,1,.34-.67v0c.13-.21.26-.41.4-.61l0-.05q.21-.27.42-.51l.1-.1a2.82,2.82,0,0,1,.36-.33l.16-.15a4.33,4.33,0,0,1,.54-.37,3.59,3.59,0,0,1,.53-.25l.1,0a2.08,2.08,0,0,1,.47-.1h0a1.72,1.72,0,0,1,.46,0h0a1.26,1.26,0,0,1,.42.16L37.77,46h0l-.14-.07-.15,0-.11,0H37.3l-.18,0h-.4l-.25.06-.11,0-.1,0-.13,0-.4.2a5.93,5.93,0,0,0-.54.38l-.16.14-.25.22-.11.12-.1.1-.11.12-.23.28-.07.1,0,.06-.08.1c-.06.08-.11.16-.16.24a2.07,2.07,0,0,0-.15.25v0l-.12.2-.12.24a2.14,2.14,0,0,0-.1.22v0h0a2.72,2.72,0,0,0-.11.25l-.1.27a.57.57,0,0,1,0,.14v.06a.29.29,0,0,0,0,.1c0,.11-.06.22-.08.32a1.77,1.77,0,0,0,0,.2.43.43,0,0,1,0,.11s0,.06,0,.09a3.6,3.6,0,0,0,0,.56,2,2,0,0,0,.84,1.84l1.1.64A2,2,0,0,1,34,51.74a4.89,4.89,0,0,1,0-.66S34.05,51,34.06,51Z"/><path class="z" d="M36.84,46.8c1.58-.92,2.87-.18,2.87,1.63a6.26,6.26,0,0,1-2.85,4.94c-1.58.91-2.87.18-2.87-1.63A6.26,6.26,0,0,1,36.84,46.8Z"/></g><path class="aa" d="M79.81,61.5q-2.25,7.59-4.52,15.19a8.36,8.36,0,0,1-1.17,2.7,4.78,4.78,0,0,1-.47.54c-1.78,1.84-4.86,2.89-7.17,3.86A10.52,10.52,0,0,0,60.57,89a18.16,18.16,0,0,0-2.36,8.79c-.06,3.09.25,6.17.19,9.26q-.09,4-.31,8c0,.72-.12,7.25-.55,7.37-.68.18-1.37.33-2.06.45a18.15,18.15,0,0,1-6.45,0,12.68,12.68,0,0,1-7.35-4.15,2.55,2.55,0,0,1-.57-1,3,3,0,0,1,.12-1.5c1.83-7.24,4-14.47,5.29-21.82.45-2.49.41-5,.66-7.49.51-4.88,1.92-9.75,5.21-13.5a51.42,51.42,0,0,1,10-8.17c2-1.38,7.36-5,6.77-2.47-1,3.84-5.14,5.77-8.06,8.47-.62.57-1.08,1.81-.27,2.06a1.2,1.2,0,0,0,.7,0c3.93-1,8.19-2.27,10.52-5.6.58-.83,1-1.76,1.59-2.59Z"/><path class="ab" d="M65.69,63.07c-.12.55.5,1,1.06,1a2.65,2.65,0,0,0,1.47-.76,2.86,2.86,0,0,0,1.26-1.93,8.25,8.25,0,0,0-3.17,1A1.63,1.63,0,0,0,65.69,63.07Z"/><path class="b" d="M73.65,79.93c-1.78,1.84-4.86,2.89-7.17,3.86A10.52,10.52,0,0,0,60.57,89a18.16,18.16,0,0,0-2.36,8.79c-.06,3.09.25,6.17.19,9.26q-.09,4-.31,8c0,.72-.12,7.25-.55,7.37-.68.18-1.37.33-2.06.45a97.62,97.62,0,0,1,1.86-30.35,10.57,10.57,0,0,1,1.45-3.95,10.93,10.93,0,0,1,4-3Q68.17,82.61,73.65,79.93Z"/><path class="aa" d="M58.39,27a51.85,51.85,0,0,1-11.53,5.89,19.35,19.35,0,0,1-4.92.83,28.25,28.25,0,0,1-9.53-1.51L31,31.7c-.34.22-.68.42-1,.66-6.07,4.34-11.69,9.37-17.45,14.12a2.91,2.91,0,0,1-1.3.75,2.54,2.54,0,0,1-1.13-.09A10.45,10.45,0,0,1,9,46.78a13,13,0,0,1-5.78-4.51A18.05,18.05,0,0,1,.48,36.44c-.19-.67-.35-1.36-.48-2-.08-.44,5.79-3.31,6.42-3.66q3.51-1.9,7.09-3.7c4.38-2.2,9-4.5,13.75-5.74s9-2,13.2-4.43c3.07-1.78,5.66-4.79,9-6.08a4.11,4.11,0,0,1,.68-.21,8.3,8.3,0,0,1,2.94,0l15.72,2-5.43,4.34c-1,.19-2.3.06-3.29.25-4,.79-6.84,4.19-9.37,7.37a1.16,1.16,0,0,0-.32.62c-.1.84,1.23.92,2,.59,3.65-1.59,7.08-4.59,11-4C66,22.28,60.47,25.68,58.39,27Z"/><path class="ab" d="M61.66,24.87a1,1,0,0,1-.49-1.37,2.66,2.66,0,0,1,1.28-1.05,2.88,2.88,0,0,1,2.28-.37,8.32,8.32,0,0,1-2.21,2.49A1.69,1.69,0,0,1,61.66,24.87Z"/><path class="b" d="M41.94,33.71a28.25,28.25,0,0,1-9.53-1.51L31,31.7c-.34.22-.68.42-1,.66-6.07,4.34-11.69,9.37-17.45,14.12a2.91,2.91,0,0,1-1.3.75,2.54,2.54,0,0,1-1.13-.09A10.45,10.45,0,0,1,9,46.78c.89-1,2-1.91,2.74-2.71A78.33,78.33,0,0,1,29.63,30.22a2.88,2.88,0,0,1,1.27-.46,2.92,2.92,0,0,1,1.43.49A35,35,0,0,0,41.94,33.71Z"/></svg>